<mxfile host="app.diagrams.net" agent="Mozilla/5.0 (Windows NT 10.0; Win64; x64; rv:131.0) Gecko/20100101 Firefox/131.0" version="24.7.17">
  <diagram id="C5RBs43oDa-KdzZeNtuy" name="Page-1">
    <mxGraphModel dx="3287" dy="1670" grid="1" gridSize="10" guides="1" tooltips="1" connect="1" arrows="1" fold="1" page="1" pageScale="1" pageWidth="827" pageHeight="1169" math="0" shadow="0">
      <root>
        <mxCell id="WIyWlLk6GJQsqaUBKTNV-0" />
        <mxCell id="WIyWlLk6GJQsqaUBKTNV-1" parent="WIyWlLk6GJQsqaUBKTNV-0" />
        <mxCell id="WIyWlLk6GJQsqaUBKTNV-2" value="" style="rounded=0;html=1;jettySize=auto;orthogonalLoop=1;fontSize=11;endArrow=block;endFill=0;endSize=8;strokeWidth=1;shadow=0;labelBackgroundColor=none;edgeStyle=orthogonalEdgeStyle;" parent="WIyWlLk6GJQsqaUBKTNV-1" source="WIyWlLk6GJQsqaUBKTNV-3" target="WIyWlLk6GJQsqaUBKTNV-6" edge="1">
          <mxGeometry relative="1" as="geometry" />
        </mxCell>
        <mxCell id="WIyWlLk6GJQsqaUBKTNV-3" value="&lt;font style=&quot;font-size: 7px;&quot;&gt;Buscar todos los usuarios&lt;/font&gt;" style="rounded=1;whiteSpace=wrap;html=1;fontSize=12;glass=0;strokeWidth=1;shadow=0;" parent="WIyWlLk6GJQsqaUBKTNV-1" vertex="1">
          <mxGeometry x="100" y="50" width="120" height="40" as="geometry" />
        </mxCell>
        <mxCell id="WIyWlLk6GJQsqaUBKTNV-4" value="Si" style="rounded=0;html=1;jettySize=auto;orthogonalLoop=1;fontSize=11;endArrow=block;endFill=0;endSize=8;strokeWidth=1;shadow=0;labelBackgroundColor=none;edgeStyle=orthogonalEdgeStyle;entryX=0.501;entryY=-0.018;entryDx=0;entryDy=0;entryPerimeter=0;" parent="WIyWlLk6GJQsqaUBKTNV-1" source="WIyWlLk6GJQsqaUBKTNV-6" target="WIyWlLk6GJQsqaUBKTNV-11" edge="1">
          <mxGeometry y="20" relative="1" as="geometry">
            <mxPoint as="offset" />
            <mxPoint x="80" y="280" as="targetPoint" />
            <Array as="points">
              <mxPoint x="80" y="180" />
            </Array>
          </mxGeometry>
        </mxCell>
        <mxCell id="WIyWlLk6GJQsqaUBKTNV-5" value="No" style="edgeStyle=orthogonalEdgeStyle;rounded=0;html=1;jettySize=auto;orthogonalLoop=1;fontSize=11;endArrow=block;endFill=0;endSize=8;strokeWidth=1;shadow=0;labelBackgroundColor=none;" parent="WIyWlLk6GJQsqaUBKTNV-1" source="WIyWlLk6GJQsqaUBKTNV-6" target="WIyWlLk6GJQsqaUBKTNV-7" edge="1">
          <mxGeometry y="10" relative="1" as="geometry">
            <mxPoint as="offset" />
            <Array as="points">
              <mxPoint x="240" y="180" />
            </Array>
          </mxGeometry>
        </mxCell>
        <mxCell id="WIyWlLk6GJQsqaUBKTNV-6" value="&lt;font style=&quot;font-size: 7px;&quot;&gt;EncontrÃ³ los usuarios&lt;/font&gt;" style="rhombus;whiteSpace=wrap;html=1;shadow=0;fontFamily=Helvetica;fontSize=12;align=center;strokeWidth=1;spacing=6;spacingTop=-4;" parent="WIyWlLk6GJQsqaUBKTNV-1" vertex="1">
          <mxGeometry x="110" y="140" width="100" height="80" as="geometry" />
        </mxCell>
        <mxCell id="WIyWlLk6GJQsqaUBKTNV-7" value="&lt;font style=&quot;font-size: 7px;&quot;&gt;Mostrar Error: NotFound 404&lt;/font&gt;" style="rounded=1;whiteSpace=wrap;html=1;fontSize=12;glass=0;strokeWidth=1;shadow=0;" parent="WIyWlLk6GJQsqaUBKTNV-1" vertex="1">
          <mxGeometry x="180" y="220" width="120" height="40" as="geometry" />
        </mxCell>
        <mxCell id="WIyWlLk6GJQsqaUBKTNV-11" value="&lt;font style=&quot;font-size: 7px;&quot;&gt;Retornar los usuarios:&lt;br&gt;User[]&lt;/font&gt;" style="rounded=1;whiteSpace=wrap;html=1;fontSize=12;glass=0;strokeWidth=1;shadow=0;" parent="WIyWlLk6GJQsqaUBKTNV-1" vertex="1">
          <mxGeometry x="20" y="220" width="120" height="40" as="geometry" />
        </mxCell>
        <mxCell id="ctFC_eEfjPi1U_Sdx5GM-1" value="usersService" style="text;html=1;align=center;verticalAlign=middle;resizable=0;points=[];autosize=1;strokeColor=none;fillColor=none;" vertex="1" parent="WIyWlLk6GJQsqaUBKTNV-1">
          <mxGeometry x="414" width="90" height="30" as="geometry" />
        </mxCell>
        <mxCell id="ctFC_eEfjPi1U_Sdx5GM-2" value="findAll" style="text;html=1;align=center;verticalAlign=middle;resizable=0;points=[];autosize=1;strokeColor=none;fillColor=none;" vertex="1" parent="WIyWlLk6GJQsqaUBKTNV-1">
          <mxGeometry x="130" y="28" width="60" height="30" as="geometry" />
        </mxCell>
        <mxCell id="ctFC_eEfjPi1U_Sdx5GM-4" value="&lt;div&gt;findById&lt;/div&gt;&lt;div&gt;param: userId&lt;br&gt;&lt;/div&gt;" style="text;html=1;align=center;verticalAlign=middle;resizable=0;points=[];autosize=1;strokeColor=none;fillColor=none;" vertex="1" parent="WIyWlLk6GJQsqaUBKTNV-1">
          <mxGeometry x="325" y="10" width="100" height="40" as="geometry" />
        </mxCell>
        <mxCell id="ctFC_eEfjPi1U_Sdx5GM-7" style="edgeStyle=orthogonalEdgeStyle;rounded=0;orthogonalLoop=1;jettySize=auto;html=1;entryX=0.5;entryY=0.009;entryDx=0;entryDy=0;entryPerimeter=0;exitX=0.5;exitY=1.01;exitDx=0;exitDy=0;exitPerimeter=0;" edge="1" parent="WIyWlLk6GJQsqaUBKTNV-1" source="ctFC_eEfjPi1U_Sdx5GM-13" target="ctFC_eEfjPi1U_Sdx5GM-8">
          <mxGeometry relative="1" as="geometry">
            <mxPoint x="370" y="129.99999999999994" as="targetPoint" />
            <mxPoint x="370" y="160" as="sourcePoint" />
          </mxGeometry>
        </mxCell>
        <mxCell id="ctFC_eEfjPi1U_Sdx5GM-9" style="edgeStyle=orthogonalEdgeStyle;rounded=0;orthogonalLoop=1;jettySize=auto;html=1;entryX=0.504;entryY=-0.003;entryDx=0;entryDy=0;entryPerimeter=0;exitX=0.144;exitY=0.651;exitDx=0;exitDy=0;exitPerimeter=0;" edge="1" parent="WIyWlLk6GJQsqaUBKTNV-1" source="ctFC_eEfjPi1U_Sdx5GM-8" target="ctFC_eEfjPi1U_Sdx5GM-14">
          <mxGeometry relative="1" as="geometry">
            <mxPoint x="310" y="290" as="targetPoint" />
          </mxGeometry>
        </mxCell>
        <mxCell id="ctFC_eEfjPi1U_Sdx5GM-15" style="edgeStyle=orthogonalEdgeStyle;rounded=0;orthogonalLoop=1;jettySize=auto;html=1;exitX=0.856;exitY=0.349;exitDx=0;exitDy=0;exitPerimeter=0;entryX=0;entryY=0.667;entryDx=0;entryDy=0;entryPerimeter=0;" edge="1" parent="WIyWlLk6GJQsqaUBKTNV-1" source="ctFC_eEfjPi1U_Sdx5GM-8" target="ctFC_eEfjPi1U_Sdx5GM-18">
          <mxGeometry relative="1" as="geometry">
            <mxPoint x="429" y="300" as="targetPoint" />
            <mxPoint x="398.64" y="230.24" as="sourcePoint" />
            <Array as="points">
              <mxPoint x="395" y="170" />
            </Array>
          </mxGeometry>
        </mxCell>
        <mxCell id="ctFC_eEfjPi1U_Sdx5GM-8" value="&lt;font style=&quot;font-size: 7px;&quot;&gt;Encontro el usuario&lt;/font&gt;" style="rhombus;whiteSpace=wrap;html=1;" vertex="1" parent="WIyWlLk6GJQsqaUBKTNV-1">
          <mxGeometry x="335" y="170" width="70" height="60" as="geometry" />
        </mxCell>
        <mxCell id="ctFC_eEfjPi1U_Sdx5GM-11" style="edgeStyle=orthogonalEdgeStyle;rounded=0;orthogonalLoop=1;jettySize=auto;html=1;entryX=0.5;entryY=0;entryDx=0;entryDy=0;" edge="1" parent="WIyWlLk6GJQsqaUBKTNV-1" source="ctFC_eEfjPi1U_Sdx5GM-10" target="ctFC_eEfjPi1U_Sdx5GM-13">
          <mxGeometry relative="1" as="geometry">
            <mxPoint x="370" y="110" as="targetPoint" />
            <Array as="points" />
          </mxGeometry>
        </mxCell>
        <mxCell id="ctFC_eEfjPi1U_Sdx5GM-10" value="&lt;font style=&quot;font-size: 8px;&quot;&gt;Ingresar el userId: string&lt;/font&gt;" style="shape=parallelogram;perimeter=parallelogramPerimeter;whiteSpace=wrap;html=1;fixedSize=1;" vertex="1" parent="WIyWlLk6GJQsqaUBKTNV-1">
          <mxGeometry x="315" y="50" width="110" height="40" as="geometry" />
        </mxCell>
        <mxCell id="ctFC_eEfjPi1U_Sdx5GM-13" value="&lt;font style=&quot;font-size: 7px;&quot;&gt;Buscar el usuario&lt;/font&gt;" style="rounded=1;whiteSpace=wrap;html=1;" vertex="1" parent="WIyWlLk6GJQsqaUBKTNV-1">
          <mxGeometry x="324" y="110" width="90" height="30" as="geometry" />
        </mxCell>
        <mxCell id="ctFC_eEfjPi1U_Sdx5GM-14" value="&lt;font style=&quot;font-size: 7px;&quot;&gt;Retornar el usuario:&lt;br&gt;User&lt;/font&gt;" style="rounded=1;whiteSpace=wrap;html=1;" vertex="1" parent="WIyWlLk6GJQsqaUBKTNV-1">
          <mxGeometry x="310" y="240" width="90" height="30" as="geometry" />
        </mxCell>
        <mxCell id="ctFC_eEfjPi1U_Sdx5GM-18" value="&lt;font style=&quot;font-size: 7px;&quot;&gt;Retornar Error: NotFound 404&lt;br&gt;&lt;/font&gt;" style="rounded=1;whiteSpace=wrap;html=1;" vertex="1" parent="WIyWlLk6GJQsqaUBKTNV-1">
          <mxGeometry x="425" y="150" width="90" height="30" as="geometry" />
        </mxCell>
        <mxCell id="ctFC_eEfjPi1U_Sdx5GM-19" value="&lt;div&gt;search&lt;/div&gt;&lt;div&gt;param: term&lt;br&gt;&lt;/div&gt;" style="text;html=1;align=center;verticalAlign=middle;resizable=0;points=[];autosize=1;strokeColor=none;fillColor=none;" vertex="1" parent="WIyWlLk6GJQsqaUBKTNV-1">
          <mxGeometry x="565" y="10" width="90" height="40" as="geometry" />
        </mxCell>
        <mxCell id="ctFC_eEfjPi1U_Sdx5GM-21" style="edgeStyle=orthogonalEdgeStyle;rounded=0;orthogonalLoop=1;jettySize=auto;html=1;entryX=0.5;entryY=0;entryDx=0;entryDy=0;" edge="1" parent="WIyWlLk6GJQsqaUBKTNV-1" source="ctFC_eEfjPi1U_Sdx5GM-20" target="ctFC_eEfjPi1U_Sdx5GM-24">
          <mxGeometry relative="1" as="geometry">
            <mxPoint x="600" y="118" as="targetPoint" />
          </mxGeometry>
        </mxCell>
        <mxCell id="ctFC_eEfjPi1U_Sdx5GM-20" value="&lt;font style=&quot;font-size: 8px;&quot;&gt;Ingresar el term: string&lt;/font&gt;" style="shape=parallelogram;perimeter=parallelogramPerimeter;whiteSpace=wrap;html=1;fixedSize=1;" vertex="1" parent="WIyWlLk6GJQsqaUBKTNV-1">
          <mxGeometry x="545" y="58" width="110" height="40" as="geometry" />
        </mxCell>
        <mxCell id="ctFC_eEfjPi1U_Sdx5GM-29" style="edgeStyle=orthogonalEdgeStyle;rounded=0;orthogonalLoop=1;jettySize=auto;html=1;entryX=0.5;entryY=0;entryDx=0;entryDy=0;" edge="1" parent="WIyWlLk6GJQsqaUBKTNV-1" source="ctFC_eEfjPi1U_Sdx5GM-24" target="ctFC_eEfjPi1U_Sdx5GM-28">
          <mxGeometry relative="1" as="geometry" />
        </mxCell>
        <mxCell id="ctFC_eEfjPi1U_Sdx5GM-24" value="&lt;font style=&quot;font-size: 7px;&quot;&gt;Buscar el usuario&lt;/font&gt;" style="rounded=1;whiteSpace=wrap;html=1;" vertex="1" parent="WIyWlLk6GJQsqaUBKTNV-1">
          <mxGeometry x="555" y="120" width="90" height="30" as="geometry" />
        </mxCell>
        <mxCell id="ctFC_eEfjPi1U_Sdx5GM-30" style="edgeStyle=orthogonalEdgeStyle;rounded=0;orthogonalLoop=1;jettySize=auto;html=1;entryX=0.995;entryY=0.499;entryDx=0;entryDy=0;entryPerimeter=0;" edge="1" parent="WIyWlLk6GJQsqaUBKTNV-1" source="ctFC_eEfjPi1U_Sdx5GM-28" target="ctFC_eEfjPi1U_Sdx5GM-31">
          <mxGeometry relative="1" as="geometry">
            <mxPoint x="540" y="200" as="targetPoint" />
          </mxGeometry>
        </mxCell>
        <mxCell id="ctFC_eEfjPi1U_Sdx5GM-32" style="edgeStyle=orthogonalEdgeStyle;rounded=0;orthogonalLoop=1;jettySize=auto;html=1;entryX=0.5;entryY=0;entryDx=0;entryDy=0;" edge="1" parent="WIyWlLk6GJQsqaUBKTNV-1" source="ctFC_eEfjPi1U_Sdx5GM-28" target="ctFC_eEfjPi1U_Sdx5GM-33">
          <mxGeometry relative="1" as="geometry">
            <mxPoint x="600" y="250" as="targetPoint" />
          </mxGeometry>
        </mxCell>
        <mxCell id="ctFC_eEfjPi1U_Sdx5GM-28" value="&lt;font style=&quot;font-size: 7px;&quot;&gt;Encontro el usuario&lt;/font&gt;" style="rhombus;whiteSpace=wrap;html=1;" vertex="1" parent="WIyWlLk6GJQsqaUBKTNV-1">
          <mxGeometry x="565" y="170" width="70" height="60" as="geometry" />
        </mxCell>
        <mxCell id="ctFC_eEfjPi1U_Sdx5GM-31" value="&lt;font style=&quot;font-size: 7px;&quot;&gt;Retornar el usuario: User&lt;font style=&quot;font-size: 7px;&quot;&gt;&lt;br&gt;&lt;/font&gt;&lt;/font&gt;" style="rounded=1;whiteSpace=wrap;html=1;" vertex="1" parent="WIyWlLk6GJQsqaUBKTNV-1">
          <mxGeometry x="450" y="185" width="90" height="30" as="geometry" />
        </mxCell>
        <mxCell id="ctFC_eEfjPi1U_Sdx5GM-33" value="&lt;font style=&quot;font-size: 7px;&quot;&gt;Retornar el Error: NotFound 404&lt;font style=&quot;font-size: 7px;&quot;&gt;&lt;font style=&quot;font-size: 7px;&quot;&gt;&lt;br&gt;&lt;/font&gt;&lt;/font&gt;&lt;/font&gt;" style="rounded=1;whiteSpace=wrap;html=1;" vertex="1" parent="WIyWlLk6GJQsqaUBKTNV-1">
          <mxGeometry x="555" y="250" width="90" height="30" as="geometry" />
        </mxCell>
        <mxCell id="ctFC_eEfjPi1U_Sdx5GM-34" value="&lt;div&gt;create&lt;/div&gt;&lt;div&gt;body: createUserDto&lt;br&gt;&lt;/div&gt;" style="text;html=1;align=center;verticalAlign=middle;resizable=0;points=[];autosize=1;strokeColor=none;fillColor=none;" vertex="1" parent="WIyWlLk6GJQsqaUBKTNV-1">
          <mxGeometry x="95" y="290" width="130" height="40" as="geometry" />
        </mxCell>
        <mxCell id="ctFC_eEfjPi1U_Sdx5GM-35" value="&lt;font style=&quot;font-size: 7px;&quot;&gt;Ingresar el body: createUserDto&lt;br&gt;&lt;/font&gt;" style="shape=parallelogram;perimeter=parallelogramPerimeter;whiteSpace=wrap;html=1;fixedSize=1;" vertex="1" parent="WIyWlLk6GJQsqaUBKTNV-1">
          <mxGeometry x="115" y="330" width="90" height="30" as="geometry" />
        </mxCell>
        <mxCell id="ctFC_eEfjPi1U_Sdx5GM-38" style="edgeStyle=orthogonalEdgeStyle;rounded=0;orthogonalLoop=1;jettySize=auto;html=1;exitX=0.5;exitY=1;exitDx=0;exitDy=0;" edge="1" parent="WIyWlLk6GJQsqaUBKTNV-1" source="ctFC_eEfjPi1U_Sdx5GM-35" target="ctFC_eEfjPi1U_Sdx5GM-39">
          <mxGeometry relative="1" as="geometry">
            <mxPoint x="160" y="440" as="targetPoint" />
            <mxPoint x="160" y="419.80000000000007" as="sourcePoint" />
            <Array as="points" />
          </mxGeometry>
        </mxCell>
        <mxCell id="ctFC_eEfjPi1U_Sdx5GM-40" style="edgeStyle=orthogonalEdgeStyle;rounded=0;orthogonalLoop=1;jettySize=auto;html=1;" edge="1" parent="WIyWlLk6GJQsqaUBKTNV-1" source="ctFC_eEfjPi1U_Sdx5GM-39" target="ctFC_eEfjPi1U_Sdx5GM-43">
          <mxGeometry relative="1" as="geometry">
            <mxPoint x="230" y="450" as="targetPoint" />
            <Array as="points">
              <mxPoint x="240" y="410" />
            </Array>
          </mxGeometry>
        </mxCell>
        <mxCell id="ctFC_eEfjPi1U_Sdx5GM-41" value="&lt;font style=&quot;font-size: 7px;&quot;&gt;Existe el usuario o el correo&lt;/font&gt;" style="edgeLabel;html=1;align=center;verticalAlign=middle;resizable=0;points=[];" vertex="1" connectable="0" parent="ctFC_eEfjPi1U_Sdx5GM-40">
          <mxGeometry x="0.2533" y="-1" relative="1" as="geometry">
            <mxPoint x="21" y="-11" as="offset" />
          </mxGeometry>
        </mxCell>
        <mxCell id="ctFC_eEfjPi1U_Sdx5GM-44" style="edgeStyle=orthogonalEdgeStyle;rounded=0;orthogonalLoop=1;jettySize=auto;html=1;" edge="1" parent="WIyWlLk6GJQsqaUBKTNV-1" source="ctFC_eEfjPi1U_Sdx5GM-39" target="ctFC_eEfjPi1U_Sdx5GM-45">
          <mxGeometry relative="1" as="geometry">
            <mxPoint x="90" y="410" as="targetPoint" />
          </mxGeometry>
        </mxCell>
        <mxCell id="ctFC_eEfjPi1U_Sdx5GM-46" value="&lt;font style=&quot;font-size: 7px;&quot;&gt;No existe&lt;br&gt;&lt;/font&gt;" style="edgeLabel;html=1;align=center;verticalAlign=middle;resizable=0;points=[];" vertex="1" connectable="0" parent="ctFC_eEfjPi1U_Sdx5GM-44">
          <mxGeometry x="0.04" relative="1" as="geometry">
            <mxPoint as="offset" />
          </mxGeometry>
        </mxCell>
        <mxCell id="ctFC_eEfjPi1U_Sdx5GM-39" value="&lt;font style=&quot;font-size: 7px;&quot;&gt;Buscar el usuario y el correo&lt;br&gt;&lt;/font&gt;" style="rhombus;whiteSpace=wrap;html=1;" vertex="1" parent="WIyWlLk6GJQsqaUBKTNV-1">
          <mxGeometry x="130" y="380" width="60" height="60" as="geometry" />
        </mxCell>
        <mxCell id="ctFC_eEfjPi1U_Sdx5GM-43" value="&lt;font style=&quot;font-size: 7px;&quot;&gt;Retornar Error: BadRequestException 400&lt;font style=&quot;font-size: 7px;&quot;&gt;&lt;font style=&quot;font-size: 7px;&quot;&gt;&lt;br&gt;&lt;/font&gt;&lt;/font&gt;&lt;/font&gt;" style="rounded=0;whiteSpace=wrap;html=1;" vertex="1" parent="WIyWlLk6GJQsqaUBKTNV-1">
          <mxGeometry x="200" y="430" width="75" height="40" as="geometry" />
        </mxCell>
        <mxCell id="ctFC_eEfjPi1U_Sdx5GM-47" style="edgeStyle=orthogonalEdgeStyle;rounded=0;orthogonalLoop=1;jettySize=auto;html=1;" edge="1" parent="WIyWlLk6GJQsqaUBKTNV-1" source="ctFC_eEfjPi1U_Sdx5GM-45" target="ctFC_eEfjPi1U_Sdx5GM-48">
          <mxGeometry relative="1" as="geometry">
            <mxPoint x="50" y="450" as="targetPoint" />
          </mxGeometry>
        </mxCell>
        <mxCell id="ctFC_eEfjPi1U_Sdx5GM-45" value="&lt;font style=&quot;font-size: 7px;&quot;&gt;Validar los datos y crear el usuario&lt;br&gt;&lt;/font&gt;" style="rounded=0;whiteSpace=wrap;html=1;" vertex="1" parent="WIyWlLk6GJQsqaUBKTNV-1">
          <mxGeometry x="20" y="395" width="60" height="30" as="geometry" />
        </mxCell>
        <mxCell id="ctFC_eEfjPi1U_Sdx5GM-48" value="&lt;font style=&quot;font-size: 7px;&quot;&gt;Retornar el nuevo User&lt;br&gt;&lt;/font&gt;" style="rounded=0;whiteSpace=wrap;html=1;" vertex="1" parent="WIyWlLk6GJQsqaUBKTNV-1">
          <mxGeometry x="20" y="450" width="60" height="30" as="geometry" />
        </mxCell>
        <mxCell id="ctFC_eEfjPi1U_Sdx5GM-49" value="&lt;div&gt;update&lt;/div&gt;&lt;div&gt;param: userId&lt;/div&gt;&lt;div&gt;body: updateUserDto&lt;br&gt;&lt;/div&gt;" style="text;html=1;align=center;verticalAlign=middle;resizable=0;points=[];autosize=1;strokeColor=none;fillColor=none;" vertex="1" parent="WIyWlLk6GJQsqaUBKTNV-1">
          <mxGeometry x="90" y="483" width="140" height="60" as="geometry" />
        </mxCell>
        <mxCell id="ctFC_eEfjPi1U_Sdx5GM-51" style="edgeStyle=orthogonalEdgeStyle;rounded=0;orthogonalLoop=1;jettySize=auto;html=1;" edge="1" parent="WIyWlLk6GJQsqaUBKTNV-1" source="ctFC_eEfjPi1U_Sdx5GM-50" target="ctFC_eEfjPi1U_Sdx5GM-52">
          <mxGeometry relative="1" as="geometry">
            <mxPoint x="160" y="610" as="targetPoint" />
          </mxGeometry>
        </mxCell>
        <mxCell id="ctFC_eEfjPi1U_Sdx5GM-50" value="&lt;font style=&quot;font-size: 7px;&quot;&gt;Ingresar el userId y el updateUserDto&lt;br&gt;&lt;/font&gt;" style="shape=parallelogram;perimeter=parallelogramPerimeter;whiteSpace=wrap;html=1;fixedSize=1;" vertex="1" parent="WIyWlLk6GJQsqaUBKTNV-1">
          <mxGeometry x="112.5" y="543" width="95" height="47.5" as="geometry" />
        </mxCell>
        <mxCell id="ctFC_eEfjPi1U_Sdx5GM-54" style="edgeStyle=orthogonalEdgeStyle;rounded=0;orthogonalLoop=1;jettySize=auto;html=1;exitX=1;exitY=0.5;exitDx=0;exitDy=0;" edge="1" parent="WIyWlLk6GJQsqaUBKTNV-1" source="ctFC_eEfjPi1U_Sdx5GM-52" target="ctFC_eEfjPi1U_Sdx5GM-55">
          <mxGeometry relative="1" as="geometry">
            <mxPoint x="224.99" y="660" as="targetPoint" />
            <mxPoint x="159.9899999999999" y="634.9999999999999" as="sourcePoint" />
            <Array as="points">
              <mxPoint x="225" y="635" />
            </Array>
          </mxGeometry>
        </mxCell>
        <mxCell id="ctFC_eEfjPi1U_Sdx5GM-56" value="&lt;font style=&quot;font-size: 7px;&quot;&gt;No existe&lt;br&gt;&lt;/font&gt;" style="edgeLabel;html=1;align=center;verticalAlign=middle;resizable=0;points=[];" vertex="1" connectable="0" parent="ctFC_eEfjPi1U_Sdx5GM-54">
          <mxGeometry x="-0.3006" relative="1" as="geometry">
            <mxPoint x="1" y="-5" as="offset" />
          </mxGeometry>
        </mxCell>
        <mxCell id="ctFC_eEfjPi1U_Sdx5GM-57" style="edgeStyle=orthogonalEdgeStyle;rounded=0;orthogonalLoop=1;jettySize=auto;html=1;" edge="1" parent="WIyWlLk6GJQsqaUBKTNV-1" source="ctFC_eEfjPi1U_Sdx5GM-52" target="ctFC_eEfjPi1U_Sdx5GM-58">
          <mxGeometry relative="1" as="geometry">
            <mxPoint x="80" y="635" as="targetPoint" />
          </mxGeometry>
        </mxCell>
        <mxCell id="ctFC_eEfjPi1U_Sdx5GM-52" value="&lt;font style=&quot;font-size: 7px;&quot;&gt;Buscar el usuario por su userId&lt;br&gt;&lt;/font&gt;" style="rhombus;whiteSpace=wrap;html=1;" vertex="1" parent="WIyWlLk6GJQsqaUBKTNV-1">
          <mxGeometry x="135" y="610" width="50" height="50" as="geometry" />
        </mxCell>
        <mxCell id="ctFC_eEfjPi1U_Sdx5GM-55" value="&lt;font style=&quot;font-size: 5px;&quot;&gt;Retornar Error: NotFoundError 404&lt;br&gt;&lt;/font&gt;" style="rounded=0;whiteSpace=wrap;html=1;" vertex="1" parent="WIyWlLk6GJQsqaUBKTNV-1">
          <mxGeometry x="200" y="650" width="60" height="30" as="geometry" />
        </mxCell>
        <mxCell id="ctFC_eEfjPi1U_Sdx5GM-60" style="edgeStyle=orthogonalEdgeStyle;rounded=0;orthogonalLoop=1;jettySize=auto;html=1;" edge="1" parent="WIyWlLk6GJQsqaUBKTNV-1" source="ctFC_eEfjPi1U_Sdx5GM-58" target="ctFC_eEfjPi1U_Sdx5GM-61">
          <mxGeometry relative="1" as="geometry">
            <mxPoint x="70" y="680" as="targetPoint" />
          </mxGeometry>
        </mxCell>
        <mxCell id="ctFC_eEfjPi1U_Sdx5GM-58" value="&lt;font style=&quot;font-size: 7px;&quot;&gt;Validar los datos y actualizar el usuario&lt;br&gt;&lt;/font&gt;" style="rhombus;whiteSpace=wrap;html=1;" vertex="1" parent="WIyWlLk6GJQsqaUBKTNV-1">
          <mxGeometry x="45" y="610" width="50" height="50" as="geometry" />
        </mxCell>
        <mxCell id="ctFC_eEfjPi1U_Sdx5GM-59" value="&lt;font style=&quot;font-size: 7px;&quot;&gt;Si existe&lt;br&gt;&lt;/font&gt;" style="text;html=1;align=center;verticalAlign=middle;resizable=0;points=[];autosize=1;strokeColor=none;fillColor=none;" vertex="1" parent="WIyWlLk6GJQsqaUBKTNV-1">
          <mxGeometry x="95" y="610" width="50" height="30" as="geometry" />
        </mxCell>
        <mxCell id="ctFC_eEfjPi1U_Sdx5GM-61" value="&lt;font style=&quot;font-size: 7px;&quot;&gt;Retornar el usuario User&lt;br&gt;&lt;/font&gt;" style="rounded=0;whiteSpace=wrap;html=1;" vertex="1" parent="WIyWlLk6GJQsqaUBKTNV-1">
          <mxGeometry x="40" y="680" width="60" height="30" as="geometry" />
        </mxCell>
        <mxCell id="ctFC_eEfjPi1U_Sdx5GM-62" value="&lt;div&gt;delete&lt;/div&gt;&lt;div&gt;param: userId&lt;br&gt;&lt;/div&gt;" style="text;html=1;align=center;verticalAlign=middle;resizable=0;points=[];autosize=1;strokeColor=none;fillColor=none;" vertex="1" parent="WIyWlLk6GJQsqaUBKTNV-1">
          <mxGeometry x="350" y="300" width="100" height="40" as="geometry" />
        </mxCell>
        <mxCell id="ctFC_eEfjPi1U_Sdx5GM-64" style="edgeStyle=orthogonalEdgeStyle;rounded=0;orthogonalLoop=1;jettySize=auto;html=1;entryX=0.5;entryY=0;entryDx=0;entryDy=0;" edge="1" parent="WIyWlLk6GJQsqaUBKTNV-1" source="ctFC_eEfjPi1U_Sdx5GM-63" target="ctFC_eEfjPi1U_Sdx5GM-65">
          <mxGeometry relative="1" as="geometry">
            <mxPoint x="400" y="390" as="targetPoint" />
          </mxGeometry>
        </mxCell>
        <mxCell id="ctFC_eEfjPi1U_Sdx5GM-63" value="&lt;font style=&quot;font-size: 7px;&quot;&gt;Ingresar el userId&lt;br&gt;&lt;/font&gt;" style="shape=parallelogram;perimeter=parallelogramPerimeter;whiteSpace=wrap;html=1;fixedSize=1;" vertex="1" parent="WIyWlLk6GJQsqaUBKTNV-1">
          <mxGeometry x="355" y="340" width="90" height="30" as="geometry" />
        </mxCell>
        <mxCell id="ctFC_eEfjPi1U_Sdx5GM-67" style="edgeStyle=orthogonalEdgeStyle;rounded=0;orthogonalLoop=1;jettySize=auto;html=1;" edge="1" parent="WIyWlLk6GJQsqaUBKTNV-1" source="ctFC_eEfjPi1U_Sdx5GM-65" target="ctFC_eEfjPi1U_Sdx5GM-69">
          <mxGeometry relative="1" as="geometry">
            <mxPoint x="320" y="480" as="targetPoint" />
          </mxGeometry>
        </mxCell>
        <mxCell id="ctFC_eEfjPi1U_Sdx5GM-68" value="&lt;font style=&quot;font-size: 7px;&quot;&gt;No existe&lt;br&gt;&lt;/font&gt;" style="edgeLabel;html=1;align=center;verticalAlign=middle;resizable=0;points=[];" vertex="1" connectable="0" parent="ctFC_eEfjPi1U_Sdx5GM-67">
          <mxGeometry x="0.2979" y="2" relative="1" as="geometry">
            <mxPoint as="offset" />
          </mxGeometry>
        </mxCell>
        <mxCell id="ctFC_eEfjPi1U_Sdx5GM-70" style="edgeStyle=orthogonalEdgeStyle;rounded=0;orthogonalLoop=1;jettySize=auto;html=1;" edge="1" parent="WIyWlLk6GJQsqaUBKTNV-1" source="ctFC_eEfjPi1U_Sdx5GM-65" target="ctFC_eEfjPi1U_Sdx5GM-71">
          <mxGeometry relative="1" as="geometry">
            <mxPoint x="480" y="480" as="targetPoint" />
          </mxGeometry>
        </mxCell>
        <mxCell id="ctFC_eEfjPi1U_Sdx5GM-72" value="&lt;font style=&quot;font-size: 7px;&quot;&gt;Si existe&lt;br&gt;&lt;/font&gt;" style="edgeLabel;html=1;align=center;verticalAlign=middle;resizable=0;points=[];" vertex="1" connectable="0" parent="ctFC_eEfjPi1U_Sdx5GM-70">
          <mxGeometry x="0.2889" y="1" relative="1" as="geometry">
            <mxPoint as="offset" />
          </mxGeometry>
        </mxCell>
        <mxCell id="ctFC_eEfjPi1U_Sdx5GM-65" value="&lt;font style=&quot;font-size: 7px;&quot;&gt;Buscar el usuario y el correo&lt;br&gt;&lt;/font&gt;" style="rhombus;whiteSpace=wrap;html=1;" vertex="1" parent="WIyWlLk6GJQsqaUBKTNV-1">
          <mxGeometry x="370" y="395" width="60" height="60" as="geometry" />
        </mxCell>
        <mxCell id="ctFC_eEfjPi1U_Sdx5GM-69" value="&lt;div style=&quot;font-size: 7px;&quot;&gt;&lt;font style=&quot;font-size: 7px;&quot;&gt;Retornar Error: NotFoundError 404&lt;/font&gt;&lt;/div&gt;" style="rounded=0;whiteSpace=wrap;html=1;" vertex="1" parent="WIyWlLk6GJQsqaUBKTNV-1">
          <mxGeometry x="285" y="480" width="70" height="35" as="geometry" />
        </mxCell>
        <mxCell id="ctFC_eEfjPi1U_Sdx5GM-74" style="edgeStyle=orthogonalEdgeStyle;rounded=0;orthogonalLoop=1;jettySize=auto;html=1;" edge="1" parent="WIyWlLk6GJQsqaUBKTNV-1" source="ctFC_eEfjPi1U_Sdx5GM-71" target="ctFC_eEfjPi1U_Sdx5GM-75">
          <mxGeometry relative="1" as="geometry">
            <mxPoint x="480" y="540" as="targetPoint" />
          </mxGeometry>
        </mxCell>
        <mxCell id="ctFC_eEfjPi1U_Sdx5GM-71" value="&lt;font style=&quot;font-size: 7px;&quot;&gt;Eliminar el usuario&lt;br&gt;&lt;/font&gt;" style="rhombus;whiteSpace=wrap;html=1;" vertex="1" parent="WIyWlLk6GJQsqaUBKTNV-1">
          <mxGeometry x="460" y="480" width="40" height="40" as="geometry" />
        </mxCell>
        <mxCell id="ctFC_eEfjPi1U_Sdx5GM-75" value="&lt;font style=&quot;font-size: 7px;&quot;&gt;Retornar message: &lt;br&gt;&quot;Usuario eliminado con exito&quot;&lt;br&gt;&lt;/font&gt;" style="rounded=0;whiteSpace=wrap;html=1;" vertex="1" parent="WIyWlLk6GJQsqaUBKTNV-1">
          <mxGeometry x="433" y="543" width="94" height="47" as="geometry" />
        </mxCell>
        <mxCell id="ctFC_eEfjPi1U_Sdx5GM-78" value="&lt;div&gt;delete&lt;/div&gt;&lt;div&gt;param: userId&lt;br&gt;&lt;/div&gt;" style="text;html=1;align=center;verticalAlign=middle;resizable=0;points=[];autosize=1;strokeColor=none;fillColor=none;" vertex="1" parent="WIyWlLk6GJQsqaUBKTNV-1">
          <mxGeometry x="590" y="300" width="100" height="40" as="geometry" />
        </mxCell>
        <mxCell id="ctFC_eEfjPi1U_Sdx5GM-80" style="edgeStyle=orthogonalEdgeStyle;rounded=0;orthogonalLoop=1;jettySize=auto;html=1;" edge="1" parent="WIyWlLk6GJQsqaUBKTNV-1" source="ctFC_eEfjPi1U_Sdx5GM-79" target="ctFC_eEfjPi1U_Sdx5GM-82">
          <mxGeometry relative="1" as="geometry">
            <mxPoint x="640" y="390" as="targetPoint" />
          </mxGeometry>
        </mxCell>
        <mxCell id="ctFC_eEfjPi1U_Sdx5GM-79" value="&lt;font style=&quot;font-size: 7px;&quot;&gt;Ingresar el userId&lt;br&gt;&lt;/font&gt;" style="shape=parallelogram;perimeter=parallelogramPerimeter;whiteSpace=wrap;html=1;fixedSize=1;" vertex="1" parent="WIyWlLk6GJQsqaUBKTNV-1">
          <mxGeometry x="595" y="340" width="90" height="30" as="geometry" />
        </mxCell>
        <mxCell id="ctFC_eEfjPi1U_Sdx5GM-83" style="edgeStyle=orthogonalEdgeStyle;rounded=0;orthogonalLoop=1;jettySize=auto;html=1;" edge="1" parent="WIyWlLk6GJQsqaUBKTNV-1" source="ctFC_eEfjPi1U_Sdx5GM-82" target="ctFC_eEfjPi1U_Sdx5GM-84">
          <mxGeometry relative="1" as="geometry">
            <mxPoint x="640" y="470" as="targetPoint" />
          </mxGeometry>
        </mxCell>
        <mxCell id="ctFC_eEfjPi1U_Sdx5GM-82" value="&lt;font style=&quot;font-size: 7px;&quot;&gt;Eliminar todos los usuarios&lt;br&gt;&lt;/font&gt;" style="rounded=0;whiteSpace=wrap;html=1;" vertex="1" parent="WIyWlLk6GJQsqaUBKTNV-1">
          <mxGeometry x="595" y="392.5" width="90" height="35" as="geometry" />
        </mxCell>
        <mxCell id="ctFC_eEfjPi1U_Sdx5GM-84" value="&lt;font style=&quot;font-size: 7px;&quot;&gt;Retornar message: &quot;Usuarios eliminados con exito&quot;&lt;br&gt;&lt;/font&gt;" style="rounded=0;whiteSpace=wrap;html=1;" vertex="1" parent="WIyWlLk6GJQsqaUBKTNV-1">
          <mxGeometry x="595" y="470" width="90" height="45" as="geometry" />
        </mxCell>
      </root>
    </mxGraphModel>
  </diagram>
</mxfile>
